HIERARCHY
ROOT root
{
	OFFSET 0.000000 0.000000 0.000000
	CHANNELS 6 Xposition Yposition Zposition Zrotation Yrotation Xrotation
	JOINT lhip
	{
		OFFSET 0.058581 -0.082280 -0.017664
		CHANNELS 3 Zrotation Yrotation Xrotation
		JOINT lknee
		{
			OFFSET 0.043451 -0.386469 0.008037
			CHANNELS 3 Zrotation Yrotation Xrotation
			JOINT lankle
			{
				OFFSET -0.014790 -0.426874 -0.037428
				CHANNELS 3 Zrotation Yrotation Xrotation
				JOINT ltoe
				{
					OFFSET 0.041054 -0.060286 0.122042
					CHANNELS 3 Zrotation Yrotation Xrotation
					End Site
					{
						OFFSET 0.000000 0.000000 0.000000
					}
				}
			}
		}
	}
	JOINT rhip
	{
		OFFSET -0.060310 -0.090513 -0.013543
		CHANNELS 3 Zrotation Yrotation Xrotation
		JOINT rknee
		{
			OFFSET -0.043257 -0.383688 -0.004843
			CHANNELS 3 Zrotation Yrotation Xrotation
			JOINT rankle
			{
				OFFSET 0.019056 -0.420046 -0.034562
				CHANNELS 3 Zrotation Yrotation Xrotation
				JOINT rtoe
				{
					OFFSET -0.034840 -0.062106 0.130323
					CHANNELS 3 Zrotation Yrotation Xrotation
					End Site
					{
						OFFSET 0.000000 0.000000 0.000000
					}
				}
			}
		}
	}
	JOINT lowerback
	{
		OFFSET 0.004439 0.124404 -0.038385
		CHANNELS 3 Zrotation Yrotation Xrotation
		JOINT upperback
		{
			OFFSET 0.004488 0.137956 0.026820
			CHANNELS 3 Zrotation Yrotation Xrotation
			JOINT chest
			{
				OFFSET -0.002265 0.056032 0.002855
				CHANNELS 3 Zrotation Yrotation Xrotation
				JOINT lowerneck
				{
					OFFSET -0.013390 0.211636 -0.033468
					CHANNELS 3 Zrotation Yrotation Xrotation
					JOINT upperneck
					{
						OFFSET 0.010113 0.088937 0.050410
						CHANNELS 3 Zrotation Yrotation Xrotation
						End Site
						{
							OFFSET 0.000000 0.000000 0.000000
						}
					}
				}
				JOINT lclavicle
				{
					OFFSET 0.071702 0.114000 -0.018898
					CHANNELS 3 Zrotation Yrotation Xrotation
					JOINT lshoulder
					{
						OFFSET 0.122921 0.045205 -0.019046
						CHANNELS 3 Zrotation Yrotation Xrotation
						JOINT lelbow
						{
							OFFSET 0.255332 -0.015649 -0.022946
							CHANNELS 3 Zrotation Yrotation Xrotation
							JOINT lwrist
							{
								OFFSET 0.265709 0.012698 -0.007375
								CHANNELS 3 Zrotation Yrotation Xrotation
								End Site
								{
									OFFSET 0.000000 0.000000 0.000000
								}
							}
						}
					}
				}
				JOINT rclavicle
				{
					OFFSET -0.082954 0.112472 -0.023707
					CHANNELS 3 Zrotation Yrotation Xrotation
					JOINT rshoulder
					{
						OFFSET -0.113228 0.046853 -0.008472
						CHANNELS 3 Zrotation Yrotation Xrotation
						JOINT relbow
						{
							OFFSET -0.260127 -0.014369 -0.031269
							CHANNELS 3 Zrotation Yrotation Xrotation
							JOINT rwrist
							{
								OFFSET -0.269108 0.006794 -0.006027
								CHANNELS 3 Zrotation Yrotation Xrotation
								End Site
								{
									OFFSET 0.000000 0.000000 0.000000
								}
							}
						}
					}
				}
			}
		}
	}
}
MOTION
Frames: 5
Frame Time: 0.033333
0.068526 0.232775 0.986565 60.665168 -3.794512 84.637951 3.807594 2.906139 -2.638225 -1.849475 12.041302 14.848273 2.051336 15.408785 -11.220689 0.000000 -0.000000 0.000000 -7.285475 -9.830560 8.767670 -5.659467 -12.785023 16.244545 1.804779 -21.415594 -13.063827 0.000000 -0.000000 0.000000 1.059138 4.235385 5.512855 -1.240901 0.475655 5.950899 -0.543768 3.125459 -1.351828 4.948592 7.885279 -14.187530 5.411787 8.862942 5.258094 -29.578467 -1.504566 1.838112 -45.314925 -7.085172 7.992878 6.251407 -51.540759 12.125587 9.801233 -5.971464 -4.385344 32.638361 10.032354 11.318480 53.043762 13.063945 14.592949 -10.500548 21.720117 6.173232 -8.528106 8.535718 20.556897 
0.082172 0.242654 0.986411 64.065878 -3.451892 84.001989 3.305972 4.322038 -1.458991 -2.196247 8.829896 13.838190 1.854731 12.439897 -12.107000 0.000000 -0.000000 0.000000 -7.763062 -10.825059 8.589278 -7.410425 -14.586940 19.599639 2.941020 -20.531067 -12.056700 0.000000 -0.000000 0.000000 0.472386 4.435484 6.436147 -0.834602 0.586108 4.021820 -0.334671 3.005399 -0.156356 5.541582 8.940185 -14.158264 3.579066 6.554895 4.839808 -29.999367 -2.141976 1.311263 -47.192052 -8.003320 9.229964 7.447074 -45.359459 10.042805 11.042663 -6.568081 -3.601834 33.252481 9.404262 9.178860 52.057771 11.914569 15.181763 -10.026065 21.128479 6.433358 -3.468389 6.611684 17.405931 
0.095430 0.253617 0.989326 67.645817 -3.639172 83.446467 2.024115 2.675639 -0.208027 -2.603168 7.085750 12.370317 1.629858 11.909529 -12.134688 0.000000 -0.000000 0.000000 -8.410594 -10.771877 7.425406 -9.256912 -15.195573 24.328663 3.113620 -21.880836 -9.811033 0.000000 -0.000000 0.000000 -0.079152 4.890549 6.911781 -0.939684 0.660349 3.516391 -0.407757 2.724464 -0.051437 5.217069 8.353941 -14.057224 3.034639 5.261699 5.140779 -30.359437 -3.294596 1.277549 -48.795799 -8.629288 9.664734 8.258726 -38.418359 8.649977 10.895081 -7.007789 -2.168038 33.548521 9.586079 8.750684 51.379729 11.513520 15.042052 -9.916399 19.341172 4.758927 -1.693599 5.917166 14.898285 
0.107424 0.265176 0.991950 71.679074 -3.308658 83.549601 1.092298 1.808244 0.196359 -2.758606 4.187029 10.926925 2.752278 11.033431 -12.135460 0.000000 -0.000000 0.000000 -8.423523 -10.276094 4.838632 -10.409276 -14.573667 30.419251 2.431415 -23.791525 -6.376090 0.000000 -0.000000 0.000000 -0.206805 4.735033 6.622734 -1.019129 1.108081 3.249485 -0.445419 2.535416 -0.093905 4.386015 6.221583 -13.912658 3.114842 4.909950 5.227073 -30.293738 -4.353327 1.479467 -50.696342 -9.247983 9.847249 8.220958 -31.371834 7.651731 12.349911 -5.312615 -2.447123 32.678666 10.081297 8.738235 50.892757 10.868184 14.762147 -9.736153 17.975937 3.738945 -1.289271 5.849803 13.527287 
0.118758 0.275560 0.993939 75.507897 -2.810238 83.460251 0.785879 1.570838 1.122943 -3.190221 1.838881 9.335109 3.198320 10.085884 -11.947403 0.000000 -0.000000 0.000000 -8.442798 -9.392243 2.196929 -10.657294 -12.929851 36.785211 2.036804 -24.542971 -1.943740 0.000000 -0.000000 0.000000 -0.480408 4.320281 6.510398 -1.007173 1.662099 3.429197 -0.469335 2.663553 -0.319754 3.935516 4.495071 -14.285123 3.183237 4.267831 5.395478 -30.445981 -4.936892 1.573472 -51.703066 -9.295955 9.639803 8.156183 -26.476012 7.002139 10.679223 -4.826863 -2.003131 32.259034 10.338156 8.798426 49.113341 10.439637 14.237581 -9.970029 17.700517 3.822059 0.339446 5.838049 15.075377 
